<svg id="svg"
  xmlns="http://www.w3.org/2000/svg"
  xmlns:xlink="http://www.w3.org/1999/xlink"
  width="400" height="466.6666666666667"
  viewBox="0, 0, 400,466.6666666666667">
  <g id="svgg">
    <path id="path0"
          d="M120.617 0.496 C 113.914 1.834,114.437 5.436,123.984 23.684 C 127.971 31.305,130.059 36.443,131.581 42.381 L 132.619 46.429 132.619 103.333 C 132.619 165.501,132.640 164.964,129.755 178.333 C 126.654 192.705,120.343 208.831,113.384 220.165 C 103.223 236.714,55.998 309.056,34.929 340.345 C 0.730 391.134,0.211 392.213,0.275 412.381 C 0.375 444.032,19.506 462.837,55.000 466.173 C 62.221 466.852,337.743 466.855,345.000 466.176 C 366.949 464.124,382.318 456.401,391.363 442.879 C 401.997 426.980,402.764 401.943,393.186 383.333 C 392.040 381.107,367.073 343.500,337.702 299.762 C 274.860 206.178,276.359 208.705,270.785 186.905 C 266.275 169.270,266.100 165.881,266.283 100.000 L 266.435 45.000 267.712 40.365 C 269.361 34.379,271.951 28.359,276.632 19.636 C 282.951 7.858,283.976 2.864,280.476 0.905 C 279.109 0.139,124.385 -0.257,120.617 0.496 M232.857 95.143 C 232.857 133.780,233.044 159.354,233.355 163.357 C 235.400 189.640,242.675 214.080,254.615 234.777 C 256.197 237.519,281.125 275.012,310.010 318.095 C 338.895 361.179,363.155 397.762,363.922 399.392 C 370.830 414.077,363.041 428.306,345.952 432.222 C 342.304 433.058,336.121 433.095,199.762 433.095 L 57.381 433.095 53.114 432.009 C 35.723 427.581,28.797 414.088,36.195 399.048 C 36.903 397.607,60.834 360.964,89.375 317.619 C 117.915 274.274,142.135 237.310,143.196 235.476 C 152.692 219.072,159.996 199.095,163.306 180.476 C 165.948 165.616,165.865 168.119,166.057 98.214 L 166.235 33.333 199.546 33.333 L 232.857 33.333 232.857 95.143 M102.732 331.658 C 56.350 402.165,58.020 399.388,58.808 404.708 C 59.605 410.090,63.676 415.244,68.401 416.854 C 71.827 418.021,328.154 418.028,331.579 416.861 C 338.835 414.388,343.225 404.803,340.281 397.857 C 339.837 396.810,320.146 366.867,296.522 331.318 L 253.571 266.684 199.524 266.682 L 145.476 266.681 102.732 331.658 M255.819 308.116 C 262.696 310.026,264.069 319.179,258.088 323.242 C 254.485 325.690,248.067 323.756,246.378 319.714 C 243.658 313.205,249.279 306.300,255.819 308.116 M271.087 331.605 C 271.930 331.964,273.075 332.768,273.633 333.391 C 274.822 334.719,298.546 370.949,299.695 373.191 C 303.206 380.042,295.125 387.514,288.352 383.678 C 286.369 382.555,261.189 345.159,259.960 341.512 C 257.816 335.151,264.805 328.929,271.087 331.605 " stroke="none" fill="#FFA500" fill-rule="evenodd"></path></g></svg>
